<svg width="40" height="40" viewBox="0 0 40 40" fill="none" xmlns="http://www.w3.org/2000/svg">
<path d="M38.8543 9.96524C37.7167 7.26036 35.9382 5.1027 33.44 3.54282C32.9597 3.24318 32.4943 3.18593 31.9604 3.37404C29.0801 4.38819 26.1931 5.383 23.3134 6.39938C23.0012 6.50942 22.7989 6.47596 22.5573 6.2425C21.8339 5.54285 20.9684 5.07444 19.9914 4.82834C19.7781 4.77481 19.6413 4.68262 19.59 4.46477C19.094 2.36361 17.8033 0.930129 15.8672 0.0401495C15.8434 0.0289968 15.8226 0.0133832 15.8003 0H15.0196C14.5215 0.255023 14.1869 0.617112 14.2114 1.2201C14.2352 1.80226 14.5861 2.12866 15.0746 2.3651C15.9624 2.79485 16.6174 3.4536 17.0159 4.36365C17.1438 4.65585 17.1319 4.79712 16.7706 4.92128C14.5289 5.69379 13.1564 7.24921 12.7274 9.59274C12.6575 9.97491 12.5006 10.1615 12.1296 10.2894C8.88418 11.4069 5.64397 12.5393 2.40302 13.6716C1.96137 13.8255 1.52047 13.9802 1.07883 14.1341C0.209669 14.4382 0 14.7393 0 15.662C0 19.6554 0 23.648 0 27.6414C0 28.4838 0.230488 28.8169 1.02009 29.092C1.48032 29.2526 1.9413 29.4124 2.40153 29.573C9.45445 32.0311 16.5074 34.4869 23.5603 36.9442C26.2615 37.8847 28.9663 38.8148 31.6601 39.7755C32.2519 39.9866 32.8013 40.0089 33.4073 39.8506C35.533 39.2959 37.3241 38.2587 38.5762 36.4051C39.3413 35.272 39.7457 34.0058 39.9398 32.6638C39.9561 32.5486 39.9784 32.4341 39.9985 32.3188V14.3638C39.7821 12.8545 39.4468 11.3772 38.8528 9.96524H38.8543ZM18.523 7.06333C20.4056 7.05069 22.022 8.66856 22.0064 10.5496C21.9907 12.4374 20.4249 14.0017 18.5394 14.0144C16.6709 14.027 15.0969 12.4694 15.0553 10.5667C15.0151 8.70128 16.6234 7.07597 18.5223 7.06333H18.523ZM2.40302 17.5713C2.40451 17.1163 2.43573 17.0947 2.87515 17.2472C6.30198 18.4368 9.72806 19.6279 13.1549 20.8182C15.1691 21.5179 17.181 22.2235 19.2004 22.9082C19.5513 23.0272 19.7097 23.1915 19.6799 23.5767C19.6457 24.0161 19.6717 24.4607 19.6717 24.9031C19.6717 25.3841 19.6584 25.8659 19.6762 26.347C19.6888 26.6815 19.5676 26.715 19.2814 26.6139C17.6382 26.0354 15.9906 25.4696 14.3445 24.8986C10.5742 23.59 6.80384 22.2807 3.03277 20.9714C2.61194 20.8252 2.40153 20.5241 2.40153 20.068C2.40153 19.2353 2.40004 18.4033 2.40153 17.5706L2.40302 17.5713ZM31.3879 33.9055C31.3612 34.3464 31.3813 34.7895 31.3813 35.2319C31.3813 35.6743 31.3827 36.1427 31.3813 36.5977C31.379 37.0594 31.3523 37.0795 30.9158 36.9278C28.4117 36.0564 25.9075 35.1828 23.4034 34.3107C16.6271 31.9508 9.85 29.5916 3.07441 27.231C2.49447 27.0288 2.41045 27.031 2.40228 26.7098C2.40079 26.66 2.40153 26.602 2.40228 26.5336V24.4986C2.40228 24.2599 2.40302 24.0205 2.40376 23.7819C2.40525 23.3737 2.44614 23.3447 2.83425 23.4792C6.80161 24.8555 10.7675 26.2332 14.7341 27.6102C16.2694 28.1433 17.8018 28.6823 19.3409 29.2058C19.6011 29.2942 19.7387 29.4333 19.8256 29.6972C20.5892 32.0103 23.1633 32.9151 25.202 31.585C25.4503 31.4229 25.66 31.4117 25.9276 31.5069C27.5931 32.0995 29.2608 32.6883 30.9344 33.2564C31.2794 33.3731 31.4095 33.5478 31.3879 33.9062V33.9055ZM26.7551 25.9321C26.7529 25.6644 26.8258 25.5774 27.0986 25.6748C28.4213 26.1455 29.7463 26.6079 31.0734 27.0667C31.3091 27.1485 31.3909 27.2964 31.385 27.5373C31.3738 28.0184 31.3813 28.4994 31.3813 28.9805C31.3813 29.4749 31.3746 29.9686 31.3842 30.463C31.3894 30.7366 31.2883 30.8147 31.0296 30.7233C29.7061 30.2556 28.3819 29.7901 27.0555 29.3299C26.8384 29.2548 26.7514 29.1277 26.7537 28.8972C26.7626 27.9091 26.7633 26.9202 26.7559 25.9321H26.7551ZM33.1902 24.3685C32.6489 24.8391 32.1984 24.9224 31.527 24.6659C29.7426 23.9848 27.9254 23.3863 26.1202 22.7588C25.4771 22.535 24.9536 22.6606 24.6042 23.103C24.4086 23.3506 24.3521 23.6339 24.3536 23.9432C24.3588 25.3611 24.3558 26.7789 24.3558 28.1968C24.3558 28.2875 24.3566 28.379 24.3558 28.4697C24.3417 29.237 23.8495 29.7946 23.2004 29.7805C22.5588 29.7664 22.08 29.2251 22.0777 28.4779C22.0718 26.4748 22.0755 24.4711 22.0748 22.4681C22.0748 21.5766 21.8502 21.2584 21.013 20.9677C15.8546 19.1766 10.6961 17.3855 5.53839 15.5943C5.38077 15.5393 5.22538 15.4791 5.0685 15.4211C5.06701 15.3876 5.06627 15.3542 5.06478 15.3215C5.98301 15.001 6.9005 14.6791 7.81948 14.3594C9.37861 13.8166 10.9437 13.288 12.4954 12.7251C12.8746 12.5876 13.0315 12.6694 13.201 13.027C14.3058 15.3587 16.7111 16.6962 19.2197 16.404C21.6948 16.1155 23.7335 14.2739 24.2912 11.8077C24.4979 10.8924 24.4785 9.97119 24.2354 9.0656C24.1551 8.76671 24.2436 8.64031 24.5157 8.54589C27.0592 7.66631 29.6013 6.78228 32.1396 5.88933C32.4036 5.79639 32.5835 5.88636 32.782 6.02911C34.878 7.53843 36.1999 9.58605 37.0037 12.0129C38.6156 16.8769 36.7501 21.2718 33.1902 24.367V24.3685ZM37.5539 31.988C37.3643 34.2415 36.3694 35.9717 34.2661 36.9657C33.8304 37.1717 33.785 37.1434 33.7843 36.6602C33.7835 33.5642 33.7865 30.4682 33.7798 27.3723C33.7798 27.1001 33.8549 26.9135 34.0802 26.747C35.3761 25.7886 36.4877 24.6451 37.4356 23.3417C37.4728 23.2904 37.5152 23.2428 37.6267 23.1053C37.6267 24.3321 37.6371 25.4495 37.6245 26.567C37.6037 28.3745 37.7055 30.1835 37.5539 31.988Z" fill="#034D83"/>
</svg>
